2.5Hzhigh3min_grf.mot
version=1
nRows=22
nColumns 19
inDegrees=yes
endheader
time	1_ground_force_vx	1_ground_force_vy	1_ground_force_vz	1_ground_force_px	1_ground_force_py	1_ground_force_pz	1_ground_torque_x	1_ground_torque_y	1_ground_torque_z	2_ground_force_vx	2_ground_force_vy	2_ground_force_vz	2_ground_force_px	2_ground_force_py	2_ground_force_pz	2_ground_torque_x	2_ground_torque_y	2_ground_torque_z
            1.253500	           -6.952281	         1588.640563	         -110.061103	           -0.219506	            0.006409	           -0.448039	           -0.015526	            3.547834	           -0.245794	          -26.292132	         1509.510947	          125.908140	           -0.205582	            0.005833	           -0.723328	            0.054795	           -3.145964	           -0.262405
            1.254000	           -6.352456	         1591.156865	         -108.309243	           -0.219440	            0.006407	           -0.447686	           -0.015548	            3.894395	           -0.265090	          -27.143838	         1511.721349	          124.930901	           -0.205603	            0.005832	           -0.723114	            0.058646	           -3.266182	           -0.269922
            1.254500	           -5.341460	         1593.315455	         -107.156076	           -0.219512	            0.006406	           -0.447393	           -0.015096	            4.502903	           -0.302836	          -27.715526	         1514.298917	          124.517979	           -0.205634	            0.005832	           -0.723090	            0.060808	           -3.322391	           -0.273194
            1.255000	           -4.652730	         1595.476098	         -106.552370	           -0.219516	            0.006405	           -0.447116	           -0.014490	            4.968817	           -0.331838	          -28.098691	         1516.510432	          123.634396	           -0.205541	            0.005832	           -0.723076	            0.065047	           -3.510643	           -0.286207
            1.255500	           -4.011404	         1597.459311	         -106.591327	           -0.219612	            0.006404	           -0.446877	           -0.012397	            4.936743	           -0.329407	          -27.635961	         1517.988932	          122.607035	           -0.205567	            0.005831	           -0.722922	            0.068623	           -3.769310	           -0.304445
            1.256000	           -3.185502	         1599.080244	         -106.173703	           -0.219706	            0.006403	           -0.446670	           -0.009484	            4.760716	           -0.316096	          -27.554698	         1521.307774	          121.539468	           -0.205604	            0.005831	           -0.722926	            0.072313	           -3.992415	           -0.318960
            1.256500	           -3.321523	         1601.420115	         -105.383768	           -0.219664	            0.006401	           -0.446368	           -0.009163	            4.417671	           -0.290711	          -27.225229	         1520.760325	          120.458018	           -0.205608	            0.005831	           -0.722761	            0.076303	           -4.262183	           -0.337604
            1.257000	           -2.905670	         1602.856226	         -103.957071	           -0.219649	            0.006401	           -0.446158	           -0.008286	            4.570695	           -0.296443	          -27.140643	         1523.158525	          119.387167	           -0.205567	            0.005831	           -0.722748	            0.079924	           -4.485401	           -0.351572
            1.257500	           -2.534537	         1603.749791	         -102.119880	           -0.219831	            0.006400	           -0.446001	           -0.007903	            5.000793	           -0.318429	          -27.096696	         1523.897265	          118.826638	           -0.205652	            0.005830	           -0.722678	            0.080765	           -4.542158	           -0.354177
            1.258000	           -1.796888	         1604.643821	         -100.375318	           -0.219833	            0.006399	           -0.445846	           -0.006271	            5.599665	           -0.350276	          -27.287687	         1524.819651	          118.219945	           -0.205555	            0.005831	           -0.722695	            0.082368	           -4.602655	           -0.356846
            1.258500	           -0.740791	         1604.641076	          -99.690092	           -0.219745	            0.006399	           -0.445826	           -0.002746	            5.948841	           -0.369578	          -27.383688	         1525.374062	          117.518027	           -0.205560	            0.005830	           -0.722561	            0.084941	           -4.731531	           -0.364527
            1.259000	           -0.326757	         1604.819018	          -99.094220	           -0.219773	            0.006399	           -0.445788	           -0.001205	            5.918568	           -0.365459	          -26.913628	         1524.827029	          116.530374	           -0.205481	            0.005830	           -0.722496	            0.086885	           -4.922597	           -0.376195
            1.259500	            0.133021	         1605.537491	          -98.496143	           -0.219825	            0.006399	           -0.445685	            0.000470	            5.677530	           -0.348304	          -26.258846	         1525.017159	          115.498334	           -0.205534	            0.005830	           -0.722385	            0.089970	           -5.225118	           -0.395728
            1.260000	           -0.370847	         1606.437769	          -98.261736	           -0.219808	            0.006398	           -0.445573	           -0.001263	            5.471794	           -0.334696	          -25.646243	         1523.917907	          114.508635	           -0.205519	            0.005829	           -0.722205	            0.091497	           -5.436824	           -0.408528
            1.260500	           -0.505872	         1606.433418	          -97.252572	           -0.219797	            0.006398	           -0.445547	           -0.001765	            5.606164	           -0.339394	          -25.413856	         1524.291508	          113.289719	           -0.205519	            0.005829	           -0.722231	            0.094311	           -5.656637	           -0.420418
            1.261000	           -1.235602	         1606.426788	          -95.737510	           -0.219851	            0.006398	           -0.445508	           -0.004602	            5.982840	           -0.356557	          -25.690570	         1523.003623	          112.675181	           -0.205408	            0.005829	           -0.722184	            0.096384	           -5.713887	           -0.422726
            1.261500	           -1.368641	         1605.517931	          -93.998501	           -0.219826	            0.006398	           -0.445569	           -0.005395	            6.329173	           -0.370555	          -25.731810	         1521.349017	          111.824581	           -0.205425	            0.005829	           -0.722099	            0.098379	           -5.816515	           -0.427535
            1.262000	           -0.769003	         1604.070023	          -92.630494	           -0.219755	            0.006399	           -0.445703	           -0.003174	            6.620829	           -0.382334	          -26.009648	         1520.427862	          111.680624	           -0.205382	            0.005829	           -0.721993	            0.100530	           -5.876625	           -0.431658
            1.262500	            0.012248	         1603.526261	          -91.901053	           -0.219837	            0.006399	           -0.445745	            0.000051	            6.621208	           -0.379474	          -25.724246	         1519.142676	          110.878135	           -0.205400	            0.005829	           -0.721971	            0.103152	           -6.091649	           -0.444613
            1.263000	            0.151925	         1602.981983	          -91.078299	           -0.219826	            0.006399	           -0.445787	            0.000610	            6.435782	           -0.365669	          -25.437741	         1517.490928	          109.558114	           -0.205354	            0.005829	           -0.721960	            0.104891	           -6.257274	           -0.451756
            1.263500	           -0.258284	         1601.175646	          -90.259606	           -0.219783	            0.006400	           -0.445981	           -0.001012	            6.271753	           -0.353544	          -24.634995	         1515.655364	          108.753420	           -0.205300	            0.005829	           -0.721862	            0.105681	           -6.501958	           -0.466538
            1.264000	           -1.218854	         1600.090585	          -89.482292	           -0.219760	            0.006400	           -0.446092	           -0.004904	            6.438391	           -0.360056	          -24.814145	         1513.263855	          107.853332	           -0.205265	            0.005829	           -0.721869	            0.109246	           -6.662229	           -0.474830
